# xmcd CD database file
# Copyright (C) 1995-1998 Ti Kan
#
# Track frame offsets:
#	150
#	20054
#	34337
#	53912
#	67621
#	81491
#	102184
#	126871
#	155494
#	173253
#	194989
#
# Disc length: 2911 seconds
#
# Revision: 2
# Processed by: cddbd v1.4PL0 Copyright (c) Steve Scherf et al.
# Submitted via: CDex 1.30Release
#
DISCID=920b5d0b
DTITLE=Lucinda Williams - Acoustic [CD2]
DYEAR=1900
DGENRE=Country
TTITLE0=Six Blocks Away
TTITLE1=Like A Rose
TTITLE2=Something About What Happens When We Talk
TTITLE3=Happy Woman Blues
TTITLE4=Disgusted
TTITLE5=Nothin' But Ramblin'
TTITLE6=Hot Blood
TTITLE7=Changed The Locks
TTITLE8=Stop Breakin' Down
TTITLE9=Which Will
TTITLE10=Postively 4th Street
EXTD=ID3G:   2
EXTT0=
EXTT1=
EXTT2=
EXTT3=
EXTT4=
EXTT5=
EXTT6=
EXTT7=
EXTT8=
EXTT9=
EXTT10=
PLAYORDER=
